<svg xmlns="http://www.w3.org/2000/svg" version="1.1" xmlns:xlink="http://www.w3.org/1999/xlink" xmlns:svgjs="http://svgjs.com/svgjs" height="92.67998962402345" width="256.2521667480469"><defs id="SvgjsDefs2361"></defs><g id="SvgjsG2362" rel="mainfill" name="main_text" xmlns:name="main_text" transform="translate(-1.757841944694519,-147.32001037597655)" fill="#E74C3C"><path d="M1.78 222.38Q1.51 216.50 4.53 213.73Q7.55 210.95 12.34 210.95L12.40 207.61L2.37 207.61L2.37 202.60L17.79 202.60L17.79 212.67Q19.89 210.95 23.01 210.95L23.07 202.60L28.46 202.60L28.46 240L23.07 240L23.07 215.96Q20.43 215.96 19.11 217.47Q17.79 218.98 17.79 222.38L17.79 240L12.40 240L12.40 215.96Q6.84 215.96 7.11 222.38L7.98 240L2.59 240L1.78 222.38ZM32.82 234.99L35.52 234.99L35.52 207.61L32.82 207.61L32.82 202.60L43.55 202.60L43.55 207.61L40.91 207.61L40.91 234.99L43.55 234.99L43.55 240L32.82 240L32.82 234.99ZM47.86 202.60L53.25 202.60L53.25 212.84L58.59 217.36L58.59 202.60L63.98 202.60L63.98 240L58.59 240L58.59 223.94L53.25 219.41L53.25 240L47.86 240L47.86 202.60ZM69.04 202.60L74.43 202.60L74.43 216.12L79.71 216.12L79.71 202.60L85.10 202.60L85.10 240L79.71 240L79.71 221.14L74.43 221.14L74.43 240L69.04 240L69.04 202.60ZM88.93 202.60L110.27 202.60L110.27 213.16L104.94 213.16L104.94 207.61L102.30 207.61L102.30 240L96.91 240L96.91 207.61L94.27 207.61L94.27 213.16L88.93 213.16L88.93 202.60ZM114.10 202.60L119.49 202.60L119.49 216.12L124.77 216.12L124.77 202.60L130.16 202.60L130.16 240L124.77 240L124.77 221.14L119.49 221.14L119.49 240L114.10 240L114.10 202.60ZM135.39 202.65L140.73 202.65L139.86 229.33Q139.86 231.54 141.43 233.26Q142.99 234.99 145.20 234.99L145.20 202.60L150.59 202.60L150.59 240L147.35 240Q143.37 240 140.43 238.68Q137.49 237.36 135.96 234.96Q134.42 232.56 134.53 229.38L135.39 202.65ZM154.90 222.38Q154.63 216.50 157.65 213.73Q160.67 210.95 165.46 210.95L165.52 207.61L155.49 207.61L155.49 202.60L170.91 202.60L170.91 212.67Q173.01 210.95 176.14 210.95L176.19 202.60L181.58 202.60L181.58 240L176.19 240L176.19 215.96Q173.55 215.96 172.23 217.47Q170.91 218.98 170.91 222.38L170.91 240L165.52 240L165.52 215.96Q159.97 215.96 160.24 222.38L161.10 240L155.71 240L154.90 222.38ZM185.95 234.99L188.64 234.99L188.64 207.61L185.95 207.61L185.95 202.60L196.67 202.60L196.67 207.61L194.03 207.61L194.03 234.99L196.67 234.99L196.67 240L185.95 240L185.95 234.99ZM200.98 202.60L206.37 202.60L206.37 212.84L211.71 217.36L211.71 202.60L217.10 202.60L217.10 240L211.71 240L211.71 223.94L206.37 219.41L206.37 240L200.98 240L200.98 202.60ZM222.00 209.93Q222.00 206.31 224.05 204.45Q226.10 202.60 229.55 202.60L237.36 202.60L237.36 213.16L231.97 213.16L231.97 207.61L229.93 207.61Q227.39 207.61 227.39 210.25L227.39 216.12L234.40 216.12L234.40 221.14L227.39 221.14L227.39 234.99L231.87 234.99L231.87 227.71L237.26 227.71L237.26 240L222.00 240L222.00 209.93ZM241.89 202.60L258.01 202.60L258.01 206.26Q258.01 214.24 255.04 217.96Q257.79 220.70 257.79 225.34Q257.79 226.09 257.74 226.53L256.93 240L251.54 240L252.40 226.53L252.45 225.61Q252.45 222.21 250.30 220.97Q248.84 221.30 247.28 221.30L247.28 240L241.89 240L241.89 202.60M247.28 216.29Q249.49 216.29 251.05 214.21Q252.62 212.14 252.62 208.42L252.62 207.61L247.28 207.61L247.28 216.29Z" fill="#E74C3C" style="fill: rgb(231, 76, 60);"></path></g><g id="SvgjsG2363" rel="mainfill" name="symbol" xmlns:name="symbol_mainfill" transform="translate(88.52608337402344,-16.280001831054683) scale(0.8)" fill="#E74C3C"><path d="M52.8,21.7c-1.8-1.8-4.7-1.8-6.4,0L6,62c-2,2-2,5.2,0,7.2c2,2,5.2,2,7.2,0l33.1-33.1  c1.8-1.8,4.7-1.8,6.4,0l33.1,33.1c2,2,5.2,2,7.2,0c2-2,2-5.2,0-7.2L52.8,21.7z" fill="#E74C3C" style="fill: rgb(231, 76, 60);"></path></g></svg>